<?xml version="1.0" encoding="UTF-8"?>
<!DOCTYPE svg PUBLIC "-//W3C//DTD SVG 1.1//EN" "http://www.w3.org/Graphics/SVG/1.1/DTD/svg11.dtd">
<svg xmlns="http://www.w3.org/2000/svg" version="1.1" width="197px" height="163px" style="shape-rendering:geometricPrecision; text-rendering:geometricPrecision; image-rendering:optimizeQuality; fill-rule:evenodd; clip-rule:evenodd" xmlns:xlink="http://www.w3.org/1999/xlink">
<g><path style="opacity:1" fill="#ffffff" d="M 65.5,53.5 C 65.5,53.1667 65.5,52.8333 65.5,52.5C 65.0269,51.0937 64.0269,50.427 62.5,50.5C 62.0269,49.0937 61.0269,48.427 59.5,48.5C 52.4695,44.5629 45.6361,40.2296 39,35.5C 34.8333,28.5 30.6667,21.5 26.5,14.5C 27.365,13.4173 28.365,13.2506 29.5,14C 33.7486,16.1935 38.082,18.1935 42.5,20C 62.398,34.2293 80.0647,50.896 95.5,70C 95.1501,71.2575 94.4835,71.5908 93.5,71C 84.2787,64.8946 74.9454,59.0612 65.5,53.5 Z"/></g>
<g><path style="opacity:0.998" fill="#ffffff" d="M 53.5,22.5 C 54.9217,22.7086 56.255,23.2086 57.5,24C 71.5,34.6667 85.5,45.3333 99.5,56C 102.773,59.0311 104.439,62.5311 104.5,66.5C 86.3833,52.9699 69.3833,38.3032 53.5,22.5 Z"/></g>
<g><path style="opacity:0.999" fill="#ffffff" d="M 57.5,50.5 C 59.8485,52.341 62.5152,53.6743 65.5,54.5C 78.2153,63.9463 91.0487,73.2797 104,82.5C 104.591,83.4835 104.257,84.1501 103,84.5C 93.6172,80.147 84.1172,75.9804 74.5,72C 67.9593,69.1467 61.7926,65.6467 56,61.5C 52.5,56.5 49,51.5 45.5,46.5C 45.8333,46.1667 46.1667,45.8333 46.5,45.5C 50.3761,46.942 54.0428,48.6087 57.5,50.5 Z"/></g>
<g><path style="opacity:0.999" fill="#ffffff" d="M 130.5,49.5 C 136.678,50.5444 142.678,52.2111 148.5,54.5C 144.534,56.1911 140.368,57.1911 136,57.5C 131.133,56.574 126.299,55.574 121.5,54.5C 121.5,53.5 121.5,52.5 121.5,51.5C 124.781,51.5797 127.781,50.913 130.5,49.5 Z"/></g>
<g><path style="opacity:0.098" fill="#ffffff" d="M 59.5,48.5 C 61.0269,48.427 62.0269,49.0937 62.5,50.5C 64.0269,50.427 65.0269,51.0937 65.5,52.5C 64.1667,52.8333 64.1667,53.1667 65.5,53.5C 65.5,53.8333 65.5,54.1667 65.5,54.5C 62.5152,53.6743 59.8485,52.341 57.5,50.5C 59.9935,50.8693 60.6602,50.2027 59.5,48.5 Z"/></g>
<g><path style="opacity:0.999" fill="#ffffff" d="M 181.5,50.5 C 183.288,50.2148 184.955,50.5481 186.5,51.5C 186.167,51.8333 185.833,52.1667 185.5,52.5C 175.085,56.024 164.918,60.024 155,64.5C 151.985,62.65 150.819,60.15 151.5,57C 161.695,55.1136 171.695,52.947 181.5,50.5 Z"/></g>
<g><path style="opacity:0.999" fill="#ffffff" d="M 117.5,55.5 C 120.971,56.3649 124.304,57.5316 127.5,59C 121.167,62.8333 114.833,66.6667 108.5,70.5C 108.167,70 107.833,69.5 107.5,69C 109.173,63.1751 112.506,58.6751 117.5,55.5 Z"/></g>
<g><path style="opacity:0.999" fill="#ffffff" d="M 131.5,70.5 C 131.768,68.901 131.434,67.5676 130.5,66.5C 130.167,66.5 129.833,66.5 129.5,66.5C 129.5,65.1667 129.5,63.8333 129.5,62.5C 132.6,60.7572 134.433,61.7572 135,65.5C 138.387,61.9609 142.553,60.6276 147.5,61.5C 147.649,62.552 147.483,63.552 147,64.5C 142.967,68.8679 138.634,72.8679 134,76.5C 132.681,74.7128 131.848,72.7128 131.5,70.5 Z"/></g>
<g><path style="opacity:0.999" fill="#ffffff" d="M 128.5,65.5 C 128.338,67.5273 128.505,69.5273 129,71.5C 129.383,72.056 129.883,72.3893 130.5,72.5C 131.645,77.2741 131.145,81.9407 129,86.5C 125.747,88.5431 122.58,90.7098 119.5,93C 118.365,93.7494 117.365,93.5827 116.5,92.5C 120.095,85.0914 122.595,77.4247 124,69.5C 120.708,76.9509 117.208,84.2842 113.5,91.5C 112.833,91.8333 112.167,92.1667 111.5,92.5C 109.724,88.266 107.891,83.9327 106,79.5C 89.7226,62.2841 90.8893,60.6174 109.5,74.5C 113.968,71.8633 118.302,69.03 122.5,66C 124.61,66.3466 126.61,66.1799 128.5,65.5 Z"/></g>
<g><path style="opacity:0.998" fill="#ffffff" d="M 154.5,65.5 C 155.675,65.281 156.675,65.6143 157.5,66.5C 154.806,70.5399 151.639,74.2065 148,77.5C 145.063,83.492 142.23,89.492 139.5,95.5C 138.336,89.5276 138.17,83.5276 139,77.5C 144.352,73.6364 149.519,69.6364 154.5,65.5 Z"/></g>
<g><path style="opacity:0.999" fill="#ffffff" d="M 70.5,71.5 C 70.8212,73.0481 71.8212,73.7148 73.5,73.5C 84.2089,77.6876 94.5422,82.6876 104.5,88.5C 103.667,88.8333 102.833,89.1667 102,89.5C 98.6499,89.0542 95.4833,88.3875 92.5,87.5C 87.0732,85.8634 81.4065,84.8634 75.5,84.5C 73.3043,84.4348 71.3043,83.7681 69.5,82.5C 67.0306,78.1993 64.3639,74.0326 61.5,70C 62.0253,69.3076 62.6919,68.8076 63.5,68.5C 65.7388,69.7878 68.0721,70.7878 70.5,71.5 Z"/></g>
<g><path style="opacity:0.941" fill="#ffffff" d="M 129.5,62.5 C 129.5,63.8333 129.5,65.1667 129.5,66.5C 129.833,69.1667 130.167,69.1667 130.5,66.5C 131.434,67.5676 131.768,68.901 131.5,70.5C 130.662,70.8417 130.328,71.5084 130.5,72.5C 129.883,72.3893 129.383,72.056 129,71.5C 128.505,69.5273 128.338,67.5273 128.5,65.5C 128.263,64.209 128.596,63.209 129.5,62.5 Z"/></g>
<g><path style="opacity:0.62"   fill="#ffffff" d="M 70.5,71.5 C 71.7095,71.9321 72.7095,72.5987 73.5,73.5C 71.8212,73.7148 70.8212,73.0481 70.5,71.5 Z"/></g>
<g><path style="opacity:0.018" fill="#ffffff" d="M 75.5,84.5 C 81.4065,84.8634 87.0732,85.8634 92.5,87.5C 90.4727,87.3379 88.4727,87.5045 86.5,88C 88.3817,88.1981 90.0484,88.6981 91.5,89.5C 86.3428,89.7057 81.3428,89.039 76.5,87.5C 77.2625,86.7321 78.2625,86.2321 79.5,86C 77.9419,85.79 76.6085,85.29 75.5,84.5 Z"/></g>
<g><path style="opacity:0.998" fill="#ffffff" d="M 76.5,87.5 C 81.3428,89.039 86.3428,89.7057 91.5,89.5C 95.1545,89.9422 98.8212,90.2756 102.5,90.5C 102.64,92.1238 101.973,93.2904 100.5,94C 91.0551,96.7429 82.3884,94.9096 74.5,88.5C 74.9569,87.7025 75.6236,87.3691 76.5,87.5 Z"/></g>
<g><path style="opacity:0.997" fill="#ffffff" d="M 58.5,89.5 C 60.604,89.2011 62.604,89.5344 64.5,90.5C 62.3501,93.1506 60.0168,95.6506 57.5,98C 54.5248,98.0435 51.5248,97.8769 48.5,97.5C 48.393,95.0968 49.393,93.2635 51.5,92C 53.9269,91.0977 56.2603,90.2644 58.5,89.5 Z"/></g>
<g><path style="opacity:0.999" fill="#ffffff" d="M 127.5,88.5 C 128.931,88.8807 129.764,89.8807 130,91.5C 130.997,94.8006 131.33,98.134 131,101.5C 125.8,106.365 120.967,111.532 116.5,117C 110.333,119.5 104.167,122 98,124.5C 97.5,124.167 97,123.833 96.5,123.5C 102.455,118.716 108.289,113.716 114,108.5C 115.833,104.167 117.667,99.8333 119.5,95.5C 122.614,93.6203 125.28,91.287 127.5,88.5 Z"/></g>
<g><path style="opacity:0.02"   fill="#ffffff" d="M 113.5,91.5 C 113.833,92.1667 114.167,92.8333 114.5,93.5C 113.167,94.1667 111.833,94.8333 110.5,95.5C 111.11,94.609 111.443,93.609 111.5,92.5C 112.167,92.1667 112.833,91.8333 113.5,91.5 Z"/></g>
<g><path style="opacity:0.999" fill="#ffffff" d="M 79.5,96.5 C 83.9804,97.5206 88.647,98.1873 93.5,98.5C 94.1667,98.5 94.5,98.8333 94.5,99.5C 92.1815,99.9925 90.1815,100.992 88.5,102.5C 76.1502,109.919 62.8169,113.919 48.5,114.5C 55.6256,107.875 62.6256,101.042 69.5,94C 73.0514,94.1315 76.3847,94.9648 79.5,96.5 Z"/></g>
<g><path style="opacity:0.999" fill="#ffffff" d="M 114.5,93.5 C 114.14,102.42 110.307,109.42 103,114.5C 101.165,110.928 101.165,107.262 103,103.5C 105.705,100.964 108.205,98.2971 110.5,95.5C 111.833,94.8333 113.167,94.1667 114.5,93.5 Z"/></g>
<g><path style="opacity:0.024" fill="#ffffff" d="M 79.5,96.5 C 84.4526,96.1228 89.1193,96.7895 93.5,98.5C 88.647,98.1873 83.9804,97.5206 79.5,96.5 Z"/></g>
<g><path style="opacity:0.998" fill="#ffffff" d="M 17.5,95.5 C 26.5891,96.261 35.5891,97.5944 44.5,99.5C 41.7012,101.214 38.7012,102.547 35.5,103.5C 29.8333,101.667 24.1667,99.8333 18.5,98C 17.7476,97.3292 17.4142,96.4959 17.5,95.5 Z"/></g>
<g><path style="opacity:0.997" fill="#ffffff" d="M 9.5,96.5 C 11.0174,96.5106 12.1841,97.1772 13,98.5C 14.8333,101 16.6667,103.5 18.5,106C 14.4705,106.303 10.4705,106.803 6.5,107.5C 5.83333,107.167 5.16667,106.833 4.5,106.5C 5.91399,105.376 7.41399,104.376 9,103.5C 9.49665,101.19 9.66331,98.8568 9.5,96.5 Z"/></g>
<g><path style="opacity:0.039" fill="#ffffff" d="M 94.5,99.5 C 94.1667,100.167 93.8333,100.833 93.5,101.5C 92.5084,101.328 91.8417,101.662 91.5,102.5C 90.5,102.5 89.5,102.5 88.5,102.5C 90.1815,100.992 92.1815,99.9925 94.5,99.5 Z"/></g>
<g><path style="opacity:0.999" fill="#ffffff" d="M 99.5,112.5 C 99.3893,113.117 99.056,113.617 98.5,114C 94.8831,114.353 91.3831,115.186 88,116.5C 83.4203,115.397 78.9203,114.064 74.5,112.5C 80.062,108.889 85.7287,105.556 91.5,102.5C 92.4916,102.672 93.1583,102.338 93.5,101.5C 94.5,101.5 95.5,101.5 96.5,101.5C 97.4959,101.586 98.3292,101.252 99,100.5C 99.4988,104.486 99.6655,108.486 99.5,112.5 Z"/></g>
<g><path style="opacity:0.24"  fill="#ffffff" d="M 99.5,112.5 C 99.6655,108.486 99.4988,104.486 99,100.5C 98.3292,101.252 97.4959,101.586 96.5,101.5C 97.287,99.8958 98.6203,99.2291 100.5,99.5C 100.818,104.032 100.485,108.366 99.5,112.5 Z"/></g>
<g><path style="opacity:0.999" fill="#ffffff" d="M 51.5,101.5 C 52.8734,101.343 54.2068,101.51 55.5,102C 52.1667,105.333 48.8333,108.667 45.5,112C 41.7934,112.737 38.1268,113.571 34.5,114.5C 35.3618,111.115 37.0284,108.115 39.5,105.5C 43.6713,104.332 47.6713,102.998 51.5,101.5 Z"/></g>
<g><path style="opacity:0.996" fill="#ffffff" d="M 20.5,104.5 C 25.1184,104.544 29.4517,105.544 33.5,107.5C 30.1395,110.194 27.1395,113.194 24.5,116.5C 23.5105,114.412 23.8439,112.412 25.5,110.5C 23.4689,108.69 21.8022,106.69 20.5,104.5 Z"/></g>
<g><path style="opacity:0.994" fill="#ffffff" d="M 17.5,112.5 C 19.3547,112.272 20.1881,112.939 20,114.5C 17.1733,118.496 13.3399,120.83 8.5,121.5C 8.16667,121 7.83333,120.5 7.5,120C 8.31686,118.51 9.15019,117.01 10,115.5C 12.6719,114.718 15.1719,113.718 17.5,112.5 Z"/></g>
<g><path style="opacity:0.993" fill="#ffffff" d="M 40.5,118.5 C 41.675,118.281 42.675,118.614 43.5,119.5C 39.7183,124.648 34.7183,126.648 28.5,125.5C 32.5538,123.144 36.5538,120.811 40.5,118.5 Z"/></g>
<g><path style="opacity:0.998" fill="#ffffff" d="M 60.5,124.5 C 57.2911,126.265 54.2911,128.265 51.5,130.5C 48.65,130.636 45.8166,130.969 43,131.5C 41.3189,131.392 40.1522,130.725 39.5,129.5C 41.3823,126.9 43.3823,124.4 45.5,122C 52.6299,122.31 59.6299,121.144 66.5,118.5C 67.8333,119.5 67.8333,120.5 66.5,121.5C 64.4734,122.513 62.4734,123.513 60.5,124.5 Z"/></g>
<g><path style="opacity:0.995" fill="#ffffff" d="M 94.5,118.5 C 95.4972,118.47 96.1639,118.97 96.5,120C 94.3853,122.229 92.052,124.229 89.5,126C 82.8333,126.667 76.1667,126.667 69.5,126C 77.8486,123.333 86.1819,120.833 94.5,118.5 Z"/></g>
<g><path style="opacity:0.994" fill="#ffffff" d="M 23.5,121.5 C 29.146,121.151 29.8127,122.651 25.5,126C 23.5273,126.495 21.5273,126.662 19.5,126.5C 19.4078,123.6 20.7411,121.933 23.5,121.5 Z"/></g>
<g><path style="opacity:0.251" fill="#ffffff" d="M 60.5,124.5 C 60.8333,125.167 61.1667,125.833 61.5,126.5C 58.1667,127.833 54.8333,129.167 51.5,130.5C 54.2911,128.265 57.2911,126.265 60.5,124.5 Z"/></g>
<g><path style="opacity:0.999" fill="#ffffff" d="M 61.5,126.5 C 57.3834,131.448 52.7168,135.948 47.5,140C 40.6667,142.5 33.8333,145 27,147.5C 25.7425,147.15 25.4092,146.483 26,145.5C 30.0647,141.605 33.898,137.605 37.5,133.5C 41.4517,132.804 45.4517,132.304 49.5,132C 50.4158,131.722 51.0825,131.222 51.5,130.5C 54.8333,129.167 58.1667,127.833 61.5,126.5 Z"/></g>
<g><path style="opacity:0.994" fill="#ffffff" d="M 14.5,129.5 C 19.6983,129.605 24.6983,130.438 29.5,132C 27.7806,133.057 25.9472,133.89 24,134.5C 21.2641,133.273 18.4308,132.273 15.5,131.5C 14.7025,131.043 14.3691,130.376 14.5,129.5 Z"/></g>
<g><path style="opacity:0.06"   fill="#ffffff" d="M 39.5,129.5 C 40.1522,130.725 41.3189,131.392 43,131.5C 45.8166,130.969 48.65,130.636 51.5,130.5C 51.0825,131.222 50.4158,131.722 49.5,132C 45.4517,132.304 41.4517,132.804 37.5,133.5C 37.9887,132.005 38.6554,130.671 39.5,129.5 Z"/></g>
</svg>
